<?xml version="1.0" encoding="utf-8"?>
<svg xmlns="http://www.w3.org/2000/svg" viewBox="0 0 500 500">
  <g transform="matrix(1.826172, 0, 0, 1.879297, 15.399994, 9)" style="">
    <svg xmlns="http://www.w3.org/2000/svg" width="256" height="256" fill="none" viewBox="0 0 256 256">
      <rect width="256" height="256" rx="60" style="fill: rgb(246, 228, 32);"/>
    </svg>
  </g>
  <path fill="#444444" d="M 343.787 355.575 C 344.821 355.656 345.936 355.821 347.052 355.821 C 362.839 355.841 378.644 355.719 394.431 355.922 C 397.889 355.963 398.923 354.472 398.747 350.284 C 398.52 344.831 398.698 339.356 398.698 332.618 C 416.618 349.283 433.943 365.379 451.718 381.923 C 434.071 398.346 416.747 414.461 398.698 431.27 C 398.698 424.917 398.698 419.67 398.698 414.42 C 398.698 407.639 398.698 407.619 393.477 407.619 C 292.528 407.619 191.563 407.619 90.613 407.619 C 85.733 407.619 85.733 407.619 85.733 401.408 C 85.733 387.948 85.879 374.488 85.651 361.049 C 85.571 356.678 86.687 355.699 89.999 355.719 C 144.28 355.841 198.56 355.943 252.84 355.759 C 280.668 355.656 302.627 341.095 317.154 310.782 C 343.368 256.043 316.041 184.351 265.815 175.118 C 227.035 167.992 190.981 200.897 184.405 250.753 C 183.71 255.942 183.658 261.273 183.256 267.524 C 189.608 266.44 195.36 265.44 201.873 264.336 C 191.674 289.254 181.834 313.316 171.848 337.704 C 156.546 317.768 141.468 298.14 126.731 278.939 C 130.432 278.163 135.342 277.266 140.208 275.979 C 141.13 275.733 142.487 273.853 142.455 272.771 C 142.18 259.721 142.891 246.811 144.91 234.004 C 144.973 233.616 144.829 233.168 144.731 232.412 C 134.875 230.288 125.729 225.794 117.439 218.565 C 97.175 200.835 86.573 167.848 91.551 137.782 C 96.965 105.02 116.518 80.531 141.792 74.487 C 158.175 70.584 173.367 74.302 187.476 85.251 C 189.964 87.189 191.483 87.476 193.114 84.104 C 194.067 82.124 195.507 80.531 197.154 78.122 C 199.207 88.579 201.129 98.363 203.036 108.146 C 203.682 111.434 204.184 114.784 204.944 118.032 C 205.767 121.546 204.928 123.117 201.985 122.873 C 193.486 122.136 184.969 121.482 176.469 120.769 C 174.369 120.585 172.283 120.298 169.585 119.971 C 171.686 116.622 173.592 113.621 175.679 110.333 C 171.088 105.92 166.031 103.715 160.762 102.632 C 135.295 97.362 112.847 122.096 113.366 154.674 C 113.754 179.674 130.432 202.02 150.128 204.143 C 152.682 204.41 153.573 202.775 154.559 200.364 C 168.518 166.5 189.542 142.562 218.145 130.103 C 284.32 101.262 353.401 152.937 366.153 237.518 C 372.437 279.166 365.279 317.196 345.288 351.287 C 344.741 352.226 344.239 353.226 343.755 354.227 C 343.657 354.411 343.787 354.778 343.867 355.554 L 343.787 355.575 Z" style=""/>
</svg>