<?xml version="1.0" encoding="utf-8"?>
<svg xmlns="http://www.w3.org/2000/svg" viewBox="0 0 500 500">
  <g transform="matrix(1.826172, 0, 0, 1.879297, 15.399994, 9)" style="">
    <svg xmlns="http://www.w3.org/2000/svg" width="256" height="256" fill="none" viewBox="0 0 256 256">
      <rect width="256" height="256" rx="60" style="fill: rgb(8, 14, 32);"/>
    </svg>
  </g>
  <linearGradient id="a" gradientUnits="userSpaceOnUse" x1="353.1" x2="107.1" y1="56.3" y2="783" gradientTransform="matrix(0.381633, 0, 0, 0.427895, 96.459207, 84.369347)">
    <stop offset="0" stop-color="#114a8b"/>
    <stop offset="1" stop-color="#0669bc"/>
  </linearGradient>
  <linearGradient id="b" gradientUnits="userSpaceOnUse" x1="429.8" x2="372.9" y1="394.9" y2="414.2" gradientTransform="matrix(0.381633, 0, 0, 0.427895, 96.459207, 84.369347)">
    <stop offset="0" stop-opacity=".3"/>
    <stop offset="0.1" stop-opacity=".2"/>
    <stop offset="0.3" stop-opacity=".1"/>
    <stop offset="0.6" stop-opacity=".1"/>
    <stop offset="1" stop-opacity="0"/>
  </linearGradient>
  <linearGradient id="c" gradientUnits="userSpaceOnUse" x1="398.4" x2="668.4" y1="35.1" y2="754.4" gradientTransform="matrix(0.381633, 0, 0, 0.427895, 96.459207, 84.369347)">
    <stop offset="0" stop-color="#3ccbf4"/>
    <stop offset="1" stop-color="#2892df"/>
  </linearGradient>
  <path d="M 198.246 84.542 L 288.581 84.542 L 194.802 396.262 C 194.323 397.855 193.625 399.353 192.735 400.705 C 191.845 402.057 190.772 403.242 189.555 404.221 C 188.338 405.202 186.995 405.963 185.567 406.477 C 184.14 406.99 182.651 407.257 181.155 407.257 L 110.851 407.257 C 108.569 407.257 106.317 406.649 104.288 405.475 C 102.255 404.307 100.5 402.611 99.169 400.529 C 97.838 398.448 96.966 396.041 96.627 393.508 C 96.288 390.974 96.494 388.385 97.223 385.959 L 184.594 95.522 C 185.07 93.93 185.77 92.432 186.661 91.081 C 187.551 89.733 188.628 88.547 189.841 87.563 C 191.058 86.588 192.401 85.827 193.829 85.308 C 195.256 84.795 196.744 84.53 198.241 84.53 L 198.241 84.533 L 198.246 84.542 Z" fill="url(#a)" style=""/>
  <path d="M 364.774 407.257 L 283.659 407.257 C 282.754 407.257 281.849 407.161 280.956 406.969 C 280.066 406.78 279.192 406.499 278.349 406.126 C 277.506 405.754 276.696 405.292 275.931 404.753 C 275.164 404.209 274.444 403.587 273.781 402.895 L 181.731 306.508 C 180.758 305.488 180.079 304.165 179.786 302.708 C 179.182 299.727 180.268 296.636 182.521 294.915 C 183.624 294.078 184.926 293.628 186.257 293.628 L 329.507 293.628 L 364.766 407.26 L 364.774 407.257 Z" fill="#0078d4" style=""/>
  <path d="M 288.905 84.542 L 225.669 293.649 L 328.992 293.623 L 364.435 407.257 L 283.623 407.257 C 282.787 407.247 281.952 407.161 281.127 406.995 C 280.304 406.828 279.494 406.584 278.708 406.258 C 277.131 405.615 275.666 404.673 274.373 403.473 L 212.235 338.451 L 194.84 395.967 C 194.39 397.406 193.772 398.772 193.001 400.025 C 191.456 402.546 189.342 404.565 186.876 405.873 C 185.648 406.524 184.347 406.989 183.01 407.257 L 110.893 407.257 C 108.588 407.264 106.313 406.649 104.264 405.459 C 100.104 403.047 97.254 398.513 96.624 393.31 C 96.315 390.746 96.559 388.136 97.337 385.698 L 184.567 95.741 C 185.022 94.123 185.706 92.591 186.59 91.214 C 187.471 89.84 188.547 88.619 189.769 87.619 C 190.99 86.618 192.348 85.84 193.788 85.316 C 195.225 84.795 196.733 84.53 198.248 84.542 L 288.909 84.542 L 288.905 84.542 Z" fill="url(#b)" style=""/>
  <path d="M 400.998 385.959 C 401.729 388.386 401.933 390.973 401.597 393.508 C 401.257 396.039 400.389 398.446 399.059 400.529 C 396.359 404.751 392.011 407.254 387.378 407.257 L 286.696 407.257 C 288.978 407.257 291.23 406.643 293.262 405.475 C 295.294 404.308 297.05 402.608 298.382 400.529 C 299.714 398.45 300.583 396.041 300.923 393.508 C 301.263 390.974 301.057 388.385 300.327 385.959 L 212.952 95.514 C 211.991 92.317 210.158 89.537 207.713 87.563 C 206.499 86.588 205.156 85.827 203.732 85.316 C 202.309 84.799 200.821 84.542 199.328 84.542 L 300.007 84.542 C 301.503 84.542 302.988 84.799 304.415 85.316 C 305.839 85.827 307.181 86.588 308.399 87.563 C 309.613 88.547 310.685 89.733 311.573 91.081 C 312.463 92.425 313.159 93.922 313.639 95.514 L 401.014 385.959 L 400.998 385.959 Z" fill="url(#c)" style=""/>
</svg>