<?xml version="1.0" encoding="utf-8"?>
<svg xmlns="http://www.w3.org/2000/svg" viewBox="0 0 500 500">
  <g transform="matrix(1.826172, 0, 0, 1.879297, 15.399994, 9)" style="">
    <svg xmlns="http://www.w3.org/2000/svg" width="256" height="256" fill="none" viewBox="0 0 256 256">
      <rect width="256" height="256" rx="60" style="fill: rgb(49, 56, 75);"/>
      <path d="M 223.511 85.101 C 223.585 81.771 222.77 78.476 221.144 75.552 C 219.462 72.726 217.037 70.398 214.122 68.815 C 188.287 54.131 162.441 39.468 136.588 24.827 C 129.628 20.865 122.88 21.006 115.963 25.029 C 105.681 30.976 54.192 60.047 38.85 68.804 C 32.531 72.407 29.462 77.926 29.462 85.094 L 29.462 173.648 C 29.394 176.908 30.178 180.132 31.736 183.012 C 33.421 185.926 35.891 188.32 38.876 189.935 C 54.219 198.719 105.717 227.755 115.998 233.728 C 122.914 237.752 129.664 237.892 136.634 233.933 C 162.463 219.243 188.305 204.573 214.166 189.928 C 217.151 188.313 219.624 185.916 221.307 183.005 C 222.864 180.125 223.647 176.901 223.582 173.639 L 223.582 85.101 L 223.511 85.101 Z" fill="#004482" style=""/>
      <path d="M 223.528 173.648 C 223.598 176.909 222.813 180.135 221.253 183.012 C 220.87 183.697 220.438 184.355 219.959 184.979 L 126.486 129.37 L 214.122 68.815 C 217.033 70.398 219.457 72.726 221.137 75.552 C 222.769 78.475 223.587 81.769 223.511 85.101 C 223.528 114.619 223.528 173.648 223.528 173.648 Z" fill="#00599c" style=""/>
      <path d="M 221.137 75.552 L 31.709 183.012 C 30.159 180.135 29.381 176.914 29.452 173.657 L 29.452 85.094 C 29.452 77.926 32.531 72.407 38.842 68.804 C 54.192 60.047 105.681 30.976 115.973 25.012 C 122.87 20.986 129.628 20.847 136.588 24.809 C 162.419 39.498 188.263 54.168 214.122 68.815 C 217.033 70.398 219.457 72.726 221.137 75.552 Z" fill="#659ad2" style=""/>
      <path d="M 130.234 165.144 C 117.245 165.161 105.272 158.217 98.998 147.019 C 98.681 146.47 98.385 145.906 98.104 145.333 C 86.146 121.022 105.407 93.086 132.776 95.044 C 142.509 95.745 151.527 100.339 157.723 107.76 C 158.196 108.32 158.617 108.91 159.089 109.516 C 159.302 109.806 159.518 110.097 159.714 110.395 L 191.015 92.648 C 190.252 91.441 189.455 90.271 188.621 89.135 C 188.185 88.527 187.73 87.948 187.304 87.376 C 153.817 44.558 85.797 53.477 64.868 103.432 C 56.834 122.605 57.827 144.297 67.58 162.683 C 67.883 163.246 68.194 163.799 68.473 164.354 C 94.97 210.371 161.691 212.107 190.623 167.533 L 160.017 149.322 C 153.434 159.202 142.237 165.15 130.234 165.144 Z" fill="#fff" style=""/>
    </svg>
  </g>
</svg>