<?xml version="1.0" encoding="utf-8"?>
<svg xmlns="http://www.w3.org/2000/svg" viewBox="0 0 500 500">
  <g transform="matrix(1.826172, 0, 0, 1.879297, 15.399994, 9)" style="">
    <svg xmlns="http://www.w3.org/2000/svg" width="256" height="256" fill="none" viewBox="0 0 256 256">
      <rect width="256" height="256" rx="60" style="fill: rgb(18, 31, 92);"/>
    </svg>
  </g>
  <path d="M 423.146 164.867 C 423.144 158.151 421.74 152.218 418.903 147.126 C 416.115 142.118 411.94 137.921 406.34 134.602 C 360.115 107.327 313.846 80.136 267.637 52.833 C 255.18 45.472 243.1 45.74 230.735 53.206 C 212.337 64.311 120.22 118.318 92.771 134.587 C 81.467 141.284 75.965 151.532 75.963 164.854 C 75.946 219.707 75.963 274.557 75.946 329.411 C 75.948 335.978 77.292 341.796 80.004 346.813 C 82.793 351.972 87.027 356.284 92.755 359.678 C 120.206 375.947 212.335 429.951 230.729 441.058 C 243.1 448.527 255.18 448.795 267.641 441.431 C 313.852 414.127 360.124 386.937 406.355 359.662 C 412.084 356.27 416.317 351.954 419.107 346.798 C 421.815 341.782 423.162 335.965 423.164 329.396 C 423.164 329.396 423.164 219.72 423.146 164.867" fill="#5C8DBC" style=""/>
  <path d="M 250.086 246.597 L 80.004 346.813 C 82.793 351.972 87.027 356.284 92.755 359.678 C 120.206 375.947 212.335 429.951 230.729 441.058 C 243.1 448.527 255.18 448.795 267.641 441.431 C 313.852 414.127 360.124 386.937 406.355 359.662 C 412.084 356.27 416.317 351.954 419.107 346.798 L 250.086 246.597" fill="#1A4674" style=""/>
  <path d="M 199.71 276.283 C 209.607 293.964 228.212 305.89 249.555 305.89 C 271.03 305.89 289.741 293.812 299.588 275.941 L 250.086 246.597 L 199.71 276.283" fill="#1A4674" style=""/>
  <path d="M 423.146 164.867 C 423.144 158.151 421.74 152.218 418.903 147.126 L 250.086 246.597 L 419.107 346.798 C 421.815 341.782 423.162 335.965 423.164 329.396 C 423.164 329.396 423.164 219.72 423.146 164.867" fill="#1B598E" style=""/>
  <path d="M 413.853 253.76 L 400.645 253.76 L 400.645 267.28 L 387.434 267.28 L 387.434 253.76 L 374.228 253.76 L 374.228 240.245 L 387.434 240.245 L 387.434 226.729 L 400.645 226.729 L 400.645 240.245 L 413.853 240.245 L 413.853 253.76 M 365.658 253.76 L 352.452 253.76 L 352.452 267.28 L 339.244 267.28 L 339.244 253.76 L 326.037 253.76 L 326.037 240.245 L 339.244 240.245 L 339.244 226.729 L 352.452 226.729 L 352.452 240.245 L 365.658 240.245 L 365.658 253.76" fill="#FFF" style=""/>
  <path d="M 299.588 275.941 C 289.741 293.812 271.03 305.89 249.555 305.89 C 228.212 305.89 209.607 293.964 199.71 276.283 C 194.739 267.411 192.128 257.359 192.137 247.132 C 192.137 214.683 217.845 188.375 249.555 188.375 C 270.76 188.375 289.267 200.152 299.213 217.653 L 349.4 188.08 C 329.453 152.843 292.21 129.136 249.555 129.136 C 185.871 129.136 134.249 181.966 134.249 247.132 C 134.249 268.512 139.806 288.559 149.52 305.854 C 169.417 341.276 206.765 365.128 249.555 365.128 C 292.423 365.128 329.83 341.181 349.698 305.652 L 299.588 275.941" fill="#FFF" style=""/>
</svg>