<?xml version="1.0" encoding="utf-8"?>
<svg xmlns="http://www.w3.org/2000/svg" viewBox="0 0 500 500">
  <g transform="matrix(1.826172, 0, 0, 1.879297, 15.399994, 9)" style="">
    <svg xmlns="http://www.w3.org/2000/svg" width="256" height="256" fill="none" viewBox="0 0 256 256">
      <rect width="256" height="256" rx="60" style="fill: rgb(153, 0, 0);"/>
    </svg>
  </g>
  <g transform="matrix(0.268395, 0, 0, 0.4509, 505.009796, 72.177963)" style="">
    <svg xmlns="http://www.w3.org/2000/svg" width="256" height="256" fill="none" viewBox="0 0 256 256">
      <rect width="256" height="256" fill="#242938" rx="60"/>
      <path fill="#81CD39" d="M119.878 31.1164C124.797 28.3008 131.203 28.2883 136.117 31.1164C160.839 45.0855 185.569 59.0332 210.287 73.0108C214.937 75.6296 218.046 80.8038 217.999 86.1608V170.206C218.034 175.785 214.617 181.083 209.712 183.642C185.071 197.535 160.442 211.444 135.805 225.337C130.786 228.207 124.251 227.986 119.387 224.88C112 220.598 104.6 216.336 97.2121 212.058C95.7022 211.158 94.0004 210.442 92.9345 208.978C93.8766 207.708 95.5618 207.55 96.9309 206.995C100.014 206.014 102.847 204.44 105.679 202.913C106.396 202.423 107.27 202.611 107.957 203.049C114.274 206.671 120.536 210.399 126.874 213.986C128.226 214.767 129.595 213.73 130.751 213.086C154.931 199.419 179.141 185.805 203.318 172.134C204.214 171.703 204.709 170.752 204.636 169.771C204.653 142.046 204.64 114.317 204.645 86.5918C204.747 85.4785 204.103 84.455 203.096 83.999C178.541 70.1702 153.997 56.3205 129.446 42.4882C128.575 41.8893 127.426 41.8878 126.554 42.4837C102.002 56.3205 77.4638 70.1832 52.9124 84.011C51.9092 84.4675 51.236 85.4745 51.3554 86.5918C51.3596 114.317 51.3554 142.046 51.3554 169.775C51.2682 170.756 51.801 171.687 52.6906 172.109C59.2422 175.824 65.8024 179.513 72.3582 183.216C76.0516 185.203 80.5863 186.385 84.6555 184.862C88.2463 183.574 90.7633 179.909 90.6948 176.097C90.7288 148.534 90.6778 120.967 90.7203 93.4078C90.6309 92.1841 91.7912 91.1731 92.981 91.2885C96.1292 91.267 99.281 91.2461 102.429 91.297C103.743 91.267 104.647 92.5847 104.485 93.8174C104.472 121.555 104.519 149.293 104.464 177.03C104.472 184.423 101.435 192.467 94.5973 196.084C86.1737 200.447 75.7619 199.522 67.4399 195.338C60.2355 191.742 53.3603 187.498 46.2838 183.646C41.3661 181.101 37.966 175.782 38.0006 170.207V86.1608C37.949 80.6929 41.1825 75.4248 45.9764 72.8445C70.6133 58.9408 95.2461 45.0261 119.878 31.1164Z"/>
      <path fill="#81CD39" d="M141.372 89.3351C152.117 88.6433 163.62 88.9255 173.289 94.2185C180.776 98.2754 184.926 106.789 185.058 115.106C184.849 116.227 183.676 116.846 182.605 116.769C179.488 116.765 176.369 116.812 173.252 116.748C171.929 116.799 171.161 115.58 170.995 114.411C170.099 110.431 167.928 106.49 164.183 104.57C158.433 101.692 151.767 101.837 145.497 101.897C140.92 102.139 135.998 102.536 132.12 105.227C129.143 107.266 128.239 111.382 129.301 114.697C130.303 117.077 133.05 117.845 135.299 118.553C148.248 121.94 161.97 121.602 174.672 126.059C179.931 127.876 185.075 131.409 186.875 136.915C189.23 144.295 188.198 153.115 182.947 159.039C178.689 163.914 172.488 166.568 166.303 168.009C158.075 169.844 149.536 169.891 141.18 169.076C133.323 168.18 125.146 166.116 119.081 160.763C113.894 156.259 111.361 149.241 111.612 142.469C111.672 141.325 112.811 140.527 113.907 140.621C117.046 140.596 120.186 140.587 123.325 140.626C124.58 140.536 125.509 141.62 125.574 142.802C126.152 146.593 127.577 150.573 130.884 152.82C137.264 156.937 145.271 156.655 152.577 156.77C158.63 156.502 165.425 156.421 170.364 152.42C172.97 150.138 173.742 146.32 173.038 143.036C172.275 140.263 169.374 138.971 166.883 138.126C154.1 134.083 140.224 135.55 127.565 130.977C122.425 129.161 117.455 125.727 115.481 120.447C112.726 112.974 113.988 103.73 119.789 98.0061C125.445 92.312 133.609 90.1192 141.372 89.3346V89.3351"/>
    </svg>
  </g>
  <g transform="matrix(0.268395, 0, 0, 0.4509, 681.613831, 67.729568)" style="">
    <svg xmlns="http://www.w3.org/2000/svg" width="256" height="256" fill="none" viewBox="0 0 256 256">
      <rect width="256" height="256" fill="#242938" rx="60"/>
      <path fill="#336791" d="M203.48 148.688C183.16 152.878 181.684 145.995 181.684 145.995C203.15 114.143 212.129 73.7134 204.38 63.8204C183.259 36.8204 146.689 49.5962 146.077 49.9266L145.88 49.9618C141.414 49.0656 136.873 48.5924 132.317 48.5485C123.12 48.4079 116.145 50.9602 110.844 54.9751C110.844 54.9751 45.6078 28.1016 48.6453 88.7743C49.2922 101.684 67.1375 186.509 88.4422 160.845C96.2891 151.409 103.812 143.484 103.812 143.484C107.539 145.966 112.018 147.232 116.708 146.775L117.073 146.466C116.966 147.681 117.016 148.905 117.221 150.108C111.737 156.239 113.354 157.315 102.385 159.572C91.2898 161.857 97.8148 165.928 102.062 166.997C107.223 168.291 119.162 170.119 127.234 158.827L126.91 160.113C129.062 161.836 130.566 171.314 130.313 179.906C130.06 188.499 129.891 194.391 131.579 199.003C133.266 203.616 134.954 213.98 149.368 210.956C161.413 208.376 167.649 201.675 168.528 190.524C169.147 182.592 170.539 183.759 170.638 176.672L171.763 173.311C173.049 162.553 171.973 159.087 179.391 160.704L181.198 160.866C186.662 161.112 193.813 159.987 198.003 158.039C207.038 153.849 212.396 146.845 203.487 148.688H203.48Z"/>
      <path stroke="#fff" stroke-linecap="round" stroke-linejoin="round" stroke-width="5.034" d="M146.07 48.5961C143.82 49.2993 182.38 34.4985 204.303 62.504C212.038 72.3969 203.073 112.827 181.606 144.678M128.098 153.784C127.536 173.795 128.239 193.946 130.194 198.784C132.148 203.621 136.346 213.198 150.767 210.118C162.812 207.538 167.199 202.538 169.098 191.506L173.548 156.231L128.098 153.784ZM110.816 53.4688C110.816 53.4688 45.5375 26.7782 48.575 87.4508C49.2219 100.36 67.0672 185.185 88.3719 159.521C96.1484 150.148 103.18 142.815 103.18 142.815L110.816 53.4688Z"/>
      <path stroke="#fff" stroke-linecap="round" stroke-linejoin="bevel" stroke-width="5.034" d="M181.613 144.664C181.613 144.664 183.02 151.555 203.41 147.35C212.319 145.508 206.954 152.511 197.926 156.702C190.515 160.147 173.893 161.026 173.619 156.28C172.916 144.01 182.366 147.737 181.684 144.664C181.065 141.894 176.832 139.18 174.048 132.402C171.608 126.495 140.579 81.1438 182.654 87.8727C184.201 87.5563 171.685 47.7946 132.31 47.2181C92.9352 46.6415 94.1797 95.6282 94.1797 95.6282"/>
      <path stroke="#fff" stroke-linejoin="round" stroke-width="5.034" d="M117.08 148.869C111.596 155 113.213 156.076 102.245 158.333C91.1492 160.618 97.6742 164.689 101.921 165.758C107.082 167.052 119.021 168.88 127.093 157.58C129.554 154.135 127.079 148.651 123.704 147.259C122.073 146.584 119.893 145.74 117.095 148.876L117.08 148.869Z"/>
      <path stroke="#fff" stroke-linecap="round" stroke-linejoin="round" stroke-width="5.034" d="M116.722 148.763C116.159 145.156 117.903 140.874 119.766 135.854C122.565 128.331 129.02 120.807 123.859 96.9219C120.013 79.1329 94.1867 93.2165 94.1867 95.6282C94.1867 98.0399 95.3539 107.863 93.7648 119.288C91.6766 134.209 103.257 146.823 116.588 145.536"/>
      <path fill="#fff" stroke="#fff" stroke-width="1.68" d="M110.577 95.2695C110.457 96.0922 112.088 98.293 114.205 98.5883C116.321 98.8836 118.128 97.168 118.248 96.3383C118.367 95.5086 116.736 94.6086 114.62 94.3133C112.503 94.018 110.682 94.4539 110.577 95.2695V95.2695Z"/>
      <path fill="#fff" stroke="#fff" stroke-width=".837" d="M175.011 93.5891C175.123 94.4118 173.499 96.6125 171.383 96.9079C169.266 97.2032 167.445 95.4875 167.34 94.6579C167.234 93.8282 168.852 92.9282 170.968 92.6329C173.084 92.3375 174.905 92.7735 175.011 93.5891Z"/>
      <path stroke="#fff" stroke-linecap="round" stroke-linejoin="round" stroke-width="5.034" d="M182.577 87.8867C182.928 94.3555 181.184 98.75 180.959 105.634C180.636 115.632 185.727 127.079 178.055 138.54"/>
    </svg>
  </g>
  <g transform="matrix(0.268395, 0, 0, 0.4509, 537.043518, 224.313202)" style="">
    <svg xmlns="http://www.w3.org/2000/svg" width="256" height="256" fill="none" viewBox="0 0 256 256">
      <rect width="256" height="256" fill="#023430" rx="60"/>
      <path fill="#10AA50" d="M171.173 107.591C160.636 61.1097 138.676 48.7357 133.074 39.9886C130.764 36.1353 128.717 32.1299 126.949 28C126.653 32.1292 126.109 34.7307 122.599 37.862C115.552 44.1454 85.6217 68.5354 83.1028 121.348C80.756 170.59 119.303 200.953 124.395 204.092C128.311 206.019 133.08 204.133 135.407 202.364C153.988 189.612 179.376 155.614 171.193 107.591"/>
      <path fill="#B8C4C2" d="M128.545 177.871C127.575 190.059 126.88 197.141 124.416 204.106C124.416 204.106 126.033 215.709 127.169 228H131.188C132.147 219.345 133.61 210.753 135.572 202.268C130.369 199.708 128.745 188.566 128.545 177.871Z"/>
      <path fill="#12924F" d="M135.565 202.275C130.307 199.846 128.786 188.469 128.552 177.871C129.852 160.388 130.231 142.849 129.688 125.326C129.412 116.132 129.818 40.1676 127.423 29.0461C129.062 32.8129 130.949 36.4662 133.074 39.9818C138.676 48.7358 160.643 61.1097 171.173 107.591C179.376 155.532 154.126 189.44 135.565 202.275Z"/>
    </svg>
  </g>
  <g transform="matrix(0.268395, 0, 0, 0.4509, 617.562134, 224.313202)" style="">
    <svg xmlns="http://www.w3.org/2000/svg" width="256" height="256" fill="none" viewBox="0 0 256 256">
      <rect width="256" height="256" fill="#677EEB" rx="60"/>
      <path fill="#F7FAFC" fill-rule="evenodd" d="M52.6582 165.183C50.7411 162.159 50.7122 158.307 52.5835 155.254L123.044 40.3196C126.963 33.927 136.426 34.4859 139.565 41.2954L203.934 180.926C206.322 186.107 203.573 192.203 198.108 193.843L97.9779 223.882C93.9492 225.09 89.6084 223.471 87.3564 219.918L52.6582 165.183ZM131.173 73.9256C131.852 70.5445 136.485 70.0569 137.853 73.2226L182.254 175.963C183.09 177.898 182.05 180.129 180.03 180.731L110.848 201.383C108.305 202.142 105.869 199.92 106.392 197.318L131.173 73.9256Z" clip-rule="evenodd"/>
    </svg>
  </g>
  <g transform="matrix(0.268395, 0, 0, 0.4509, 698.08075, 224.313202)" style="">
    <svg xmlns="http://www.w3.org/2000/svg" width="256" height="256" fill="none" viewBox="0 0 256 256">
      <rect width="256" height="256" fill="#2396ED" rx="60"/>
      <path fill="#fff" d="M141.187 122.123H161.904V103.379H141.187V122.123ZM116.525 122.123H137.241V103.379H116.525V122.123ZM92.3554 122.123H113.072V103.379H92.3554V122.123ZM68.1859 122.123H88.4093V103.379H68.1859V122.123ZM43.5233 122.123H64.2399V103.379H43.5233V122.123ZM68.1859 99.4333H88.4093V80.6896H68.1859V99.4333ZM92.3554 99.4333H113.072V80.6896H92.3554V99.4333ZM116.525 99.4333H137.241V80.6896H116.525V99.4333ZM116.525 76.7436H137.241V58H116.525V76.7436ZM228 113.738C228 113.738 219.121 105.352 200.871 108.312C198.898 94.0075 183.607 85.6222 183.607 85.6222C183.607 85.6222 169.303 102.886 179.661 122.123C176.702 123.603 171.769 125.576 164.37 125.576H28.7257C26.2594 134.948 26.2594 197.097 94.3284 197.097C143.16 197.097 179.661 174.408 196.925 132.974C222.574 134.948 228 113.738 228 113.738Z"/>
    </svg>
  </g>
  <path d="M 527.858 248.854 C 527.858 248.854 526.628 249.602 528.713 249.816 C 531.223 250.136 532.56 250.083 535.338 249.549 C 535.897 249.891 536.487 250.177 537.101 250.404 C 530.851 253.076 522.941 250.244 527.857 248.854 L 527.858 248.854 Z M 527.058 245.381 C 527.058 245.381 525.722 246.396 527.806 246.611 C 530.531 246.878 532.668 246.931 536.356 246.184 C 536.715 246.548 537.154 246.822 537.638 246.985 C 530.104 249.229 521.662 247.199 527.058 245.382 L 527.058 245.381 Z M 541.805 251.471 C 541.805 251.471 542.713 252.219 540.79 252.807 C 537.21 253.877 525.776 254.197 522.57 252.807 C 521.448 252.327 523.585 251.632 524.27 251.525 C 524.965 251.365 525.34 251.365 525.34 251.365 C 524.11 250.51 517.165 253.128 521.814 253.875 C 534.584 255.959 545.11 252.967 541.797 251.471 L 541.805 251.471 Z M 528.436 241.747 C 528.436 241.747 522.612 243.137 526.352 243.617 C 527.955 243.831 531.107 243.777 534.046 243.564 C 536.45 243.35 538.856 242.924 538.856 242.924 C 538.856 242.924 538.001 243.298 537.413 243.672 C 531.483 245.222 520.101 244.527 523.361 242.924 C 526.139 241.588 528.437 241.749 528.437 241.749 L 528.436 241.747 Z M 538.856 247.571 C 544.84 244.471 542.062 241.481 540.138 241.854 C 539.658 241.961 539.443 242.068 539.443 242.068 C 539.443 242.068 539.603 241.748 539.977 241.641 C 543.771 240.305 546.763 245.648 538.747 247.731 C 538.747 247.731 538.8 247.678 538.854 247.571 L 538.856 247.571 Z M 529.026 256.013 C 534.796 256.387 543.613 255.799 543.826 253.073 C 543.826 253.073 543.399 254.143 539.071 254.943 C 534.155 255.851 528.064 255.743 524.484 255.157 C 524.484 255.157 525.232 255.797 529.026 256.012 L 529.026 256.013 Z" fill="#4e7896"/>
  <path d="M 535.232 224.115 C 535.232 224.115 538.545 227.481 532.08 232.557 C 526.897 236.671 530.905 239.022 532.08 241.694 C 529.034 238.969 526.844 236.564 528.34 234.321 C 530.53 231.007 536.568 229.414 535.232 224.115 Z M 533.532 239.45 C 535.082 241.213 533.105 242.816 533.105 242.816 C 533.105 242.816 537.059 240.786 535.242 238.274 C 533.586 235.87 532.302 234.694 539.249 230.687 C 539.249 230.687 528.296 233.412 533.532 239.45 L 533.532 239.45 Z" fill="#f58219"/>
  <path d="M 207.061 352.927 C 207.061 352.927 192.429 362.662 217.231 365.445 C 247.094 369.609 263.001 368.919 296.048 361.973 C 302.699 366.422 309.718 370.143 317.023 373.094 C 242.667 407.86 148.565 371.015 207.049 352.927 L 207.061 352.927 Z M 197.543 307.743 C 197.543 307.743 181.65 320.949 206.442 323.747 C 238.861 327.218 264.283 327.91 308.159 318.19 C 312.431 322.926 317.651 326.49 323.411 328.612 C 233.781 357.809 133.349 331.395 197.543 307.756 L 197.543 307.743 Z M 372.985 386.978 C 372.985 386.978 383.788 396.711 360.911 404.359 C 318.32 418.283 182.29 422.446 144.152 404.359 C 130.804 398.115 156.226 389.073 164.374 387.682 C 172.645 385.599 177.105 385.599 177.105 385.599 C 162.473 374.476 79.85 408.539 135.157 418.257 C 287.079 445.371 412.304 406.443 372.889 386.978 L 372.985 386.978 Z M 213.937 260.462 C 213.937 260.462 144.65 278.546 189.144 284.791 C 208.215 287.576 245.712 286.873 280.679 284.101 C 309.278 281.319 337.901 275.775 337.901 275.775 C 337.901 275.775 327.73 280.642 320.734 285.508 C 250.188 305.672 114.778 296.631 153.561 275.775 C 186.61 258.392 213.948 260.487 213.948 260.487 L 213.937 260.462 Z M 337.901 336.237 C 409.092 295.903 376.042 257 353.152 261.853 C 347.444 263.245 344.886 264.638 344.886 264.638 C 344.886 264.638 346.787 260.474 351.238 259.081 C 396.374 241.699 431.97 311.217 336.604 338.318 C 336.604 338.318 337.235 337.629 337.878 336.237 L 337.901 336.237 Z M 220.956 446.072 C 289.601 450.938 394.495 443.289 397.029 407.821 C 397.029 407.821 391.948 421.744 340.459 432.153 C 281.976 443.967 209.513 442.559 166.922 434.938 C 166.922 434.938 175.821 443.264 220.956 446.06 L 220.956 446.072 Z" fill="#4e7896" style=""/>
  <path d="M 294.788 31.055 C 294.788 31.055 334.202 74.849 257.289 140.892 C 195.627 194.418 243.31 225.006 257.289 259.773 C 221.052 224.317 194.999 193.027 212.796 163.842 C 238.849 120.725 310.681 100 294.788 31.055 Z M 274.564 230.576 C 293.003 253.512 269.482 274.371 269.482 274.371 C 269.482 274.371 316.523 247.959 294.907 215.274 C 275.205 183.997 259.93 168.695 342.575 116.562 C 342.575 116.562 212.272 152.016 274.564 230.576 Z" fill="#f58219" style=""/>
</svg>