<?xml version="1.0" encoding="utf-8"?>
<svg xmlns="http://www.w3.org/2000/svg" viewBox="0 0 500 500">
  <defs>
    <linearGradient x1="12.959%" y1="12.039%" x2="79.639%" y2="78.201%" id="a">
      <stop stop-color="#387EB8" offset="0"/>
      <stop stop-color="#366994" offset="1"/>
    </linearGradient>
    <linearGradient x1="19.128%" y1="20.579%" x2="90.742%" y2="88.429%" id="b">
      <stop stop-color="#FFE052" offset="0"/>
      <stop stop-color="#FFC331" offset="1"/>
    </linearGradient>
  </defs>
  <g transform="matrix(1.826172, 0, 0, 1.879297, 15.399994, 9)" style="">
    <svg xmlns="http://www.w3.org/2000/svg" width="256" height="256" fill="none" viewBox="0 0 256 256">
      <rect width="256" height="256" rx="60" style="fill: rgb(36, 41, 56);"/>
    </svg>
  </g>
  <path d="M 251.743 48.141 C 155.065 48.141 161.102 93.092 161.102 93.092 L 161.209 139.662 L 253.467 139.662 L 253.467 153.645 L 124.565 153.645 C 124.565 153.645 62.701 146.122 62.701 250.708 C 62.701 355.3 116.697 351.592 116.697 351.592 L 148.923 351.592 L 148.923 303.057 C 148.923 303.057 147.185 245.164 202.058 245.164 L 293.56 245.164 C 293.56 245.164 344.97 246.053 344.97 191.892 L 344.97 102.338 C 344.97 102.338 352.779 48.141 251.743 48.141 Z M 200.871 79.458 C 210.041 79.449 217.476 87.421 217.469 97.254 C 217.476 107.086 210.041 115.056 200.871 115.048 C 191.701 115.056 184.266 107.086 184.274 97.254 C 184.266 87.421 191.701 79.449 200.871 79.458 Z" fill="url(#a)" style=""/>
  <path d="M 254.487 454.33 C 351.165 454.33 345.128 409.379 345.128 409.379 L 345.021 362.81 L 252.762 362.81 L 252.762 348.827 L 381.663 348.827 C 381.663 348.827 443.528 356.35 443.528 251.76 C 443.528 147.171 389.532 150.879 389.532 150.879 L 357.306 150.879 L 357.306 199.413 C 357.306 199.413 359.045 257.306 304.171 257.306 L 212.668 257.306 C 212.668 257.306 161.259 256.415 161.259 310.578 L 161.259 400.135 C 161.259 400.135 153.452 454.33 254.486 454.33 L 254.487 454.33 Z M 305.358 423.015 C 296.189 423.024 288.752 415.053 288.761 405.221 C 288.751 395.387 296.189 387.414 305.358 387.424 C 314.529 387.414 321.963 395.386 321.956 405.219 C 321.963 415.049 314.529 423.023 305.358 423.014 L 305.358 423.015 Z" fill="url(#b)" style=""/>
</svg>