<?xml version="1.0" encoding="utf-8"?>
<svg xmlns="http://www.w3.org/2000/svg" viewBox="0 0 500 500">
  <defs>
    <linearGradient x1="12.959%" y1="12.039%" x2="79.639%" y2="78.201%" id="a">
      <stop stop-color="#387EB8" offset="0"/>
      <stop stop-color="#366994" offset="1"/>
    </linearGradient>
    <linearGradient x1="19.128%" y1="20.579%" x2="90.742%" y2="88.429%" id="b">
      <stop stop-color="#FFE052" offset="0"/>
      <stop stop-color="#FFC331" offset="1"/>
    </linearGradient>
  </defs>
  <g transform="matrix(1.826172, 0, 0, 1.879297, 15.399994, 9)" style="">
    <svg xmlns="http://www.w3.org/2000/svg" width="256" height="256" fill="none" viewBox="0 0 256 256">
      <rect width="256" height="256" rx="60" style="fill: rgb(36, 41, 56);"/>
    </svg>
  </g>
  <path d="M 256.313 76.611 C 168.218 76.611 173.719 116.541 173.719 116.541 L 173.817 157.909 L 257.884 157.909 L 257.884 170.329 L 140.426 170.329 C 140.426 170.329 84.053 163.647 84.053 256.551 C 84.053 349.459 133.256 346.164 133.256 346.164 L 162.621 346.164 L 162.621 303.051 C 162.621 303.051 161.037 251.625 211.038 251.625 L 294.418 251.625 C 294.418 251.625 341.264 252.415 341.264 204.303 L 341.264 124.753 C 341.264 124.753 348.379 76.611 256.313 76.611 Z M 209.957 104.429 C 218.314 104.421 225.088 111.502 225.082 120.237 C 225.088 128.971 218.314 136.052 209.957 136.044 C 201.601 136.052 194.826 128.971 194.833 120.237 C 194.826 111.502 201.601 104.421 209.957 104.429 Z" fill="url(#a)" style=""/>
  <path d="M 257.035 437.426 C 345.13 437.426 339.63 397.496 339.63 397.496 L 339.532 356.129 L 255.462 356.129 L 255.462 343.71 L 372.921 343.71 C 372.921 343.71 429.293 350.391 429.293 257.484 C 429.293 164.577 380.09 167.873 380.09 167.873 L 350.726 167.873 L 350.726 210.985 C 350.726 210.985 352.309 262.411 302.308 262.411 L 218.928 262.411 C 218.928 262.411 172.083 261.62 172.083 309.733 L 172.083 389.285 C 172.083 389.285 164.969 437.426 257.033 437.426 L 257.035 437.426 Z M 303.39 409.609 C 295.034 409.617 288.259 402.536 288.266 393.803 C 288.258 385.067 295.034 377.986 303.39 377.994 C 311.745 377.986 318.52 385.066 318.514 393.802 C 318.52 402.534 311.745 409.616 303.39 409.608 L 303.39 409.609 Z" fill="url(#b)" style=""/>
</svg>