<?xml version="1.0" encoding="utf-8"?>
<svg xmlns="http://www.w3.org/2000/svg" viewBox="0 0 500 500">
  <g transform="matrix(1.826172, 0, 0, 1.879297, 15.399994, 9)" style="">
    <svg xmlns="http://www.w3.org/2000/svg" width="256" height="256" fill="none" viewBox="0 0 256 256">
      <rect width="256" height="256" rx="60" style="fill: rgb(8, 14, 32);"/>
    </svg>
  </g>
  <path d="M 228.25 441.253 C 194.687 438.801 161.517 430.231 141.178 418.762 C 129.586 412.232 120.761 404.203 117.293 397.049 L 115.235 392.79 L 115.235 259.259 L 115.235 125.726 L 116.863 122.371 C 124.151 107.365 147.416 93.834 179.883 85.716 C 190.906 82.963 206.82 80.221 219.8 78.834 C 233.055 77.421 268.191 77.633 281.411 79.211 C 316.557 83.398 346.46 92.774 364.888 105.381 C 371.997 110.242 379.286 118.018 381.759 123.373 L 383.876 127.965 L 383.695 261.091 L 383.513 394.224 L 381.817 397.724 C 380.879 399.652 378.052 403.443 375.537 406.15 C 360.212 422.621 327.344 434.807 284.228 440.001 C 275.444 441.061 237.265 441.912 228.25 441.253 Z M 290.098 326.835 C 289.971 326.492 284.951 321.958 278.948 316.758 C 272.945 311.563 267.776 307.065 267.46 306.763 C 267.141 306.469 268.253 305.409 269.922 304.417 C 271.596 303.419 274.799 300.656 277.042 298.272 C 283.599 291.296 286.691 282.685 286.691 271.398 C 286.691 260.286 283.358 251.327 276.674 244.481 C 269.934 237.589 262.2 234.622 250.936 234.622 C 233.572 234.622 220.234 244.897 215.979 261.553 C 214.513 267.284 214.524 278.861 215.993 283.941 C 219.835 297.197 230.289 306.822 243.298 309.082 C 247.698 309.845 248.299 310.177 251.299 313.502 C 253.082 315.479 256.745 319.428 259.433 322.274 L 264.325 327.452 L 277.329 327.452 C 284.48 327.452 290.226 327.173 290.098 326.835 Z M 245.501 289.91 C 242.371 288.258 241.188 286.969 239.407 283.291 C 238.024 280.445 237.788 278.83 237.772 272.114 C 237.757 265.285 237.972 263.808 239.412 260.848 C 241.767 255.997 245.014 253.7 250.033 253.332 C 257.025 252.817 261.056 256.299 263.172 264.655 C 265.764 274.903 262.917 285.801 256.693 289.417 C 253.429 291.312 248.564 291.53 245.501 289.91 Z M 187.864 308.936 C 201.499 306.313 209.238 298.272 209.238 286.731 C 209.238 276.492 204.239 270.524 190.43 264.271 C 182.526 260.692 179.664 258.449 179.664 255.825 C 179.664 253.649 182.379 251.265 185.542 250.667 C 188.631 250.081 196.823 251.523 201.663 253.504 L 205.718 255.165 L 205.718 246.065 L 205.718 236.959 L 201.313 235.972 C 198.595 235.361 192.878 234.992 186.353 235.011 C 177.107 235.011 175.295 235.24 171.816 236.638 C 161.65 240.731 156.83 247.702 156.907 258.189 C 156.979 268.004 162.085 274.13 174.792 279.635 C 182.29 282.887 185.298 285.358 185.298 288.283 C 185.298 294.5 175.085 295.264 164.273 289.857 C 161.311 288.378 158.653 287.048 158.361 286.901 C 158.075 286.75 157.834 291.005 157.834 296.35 C 157.834 306.022 157.843 306.068 159.569 306.739 C 166.076 309.242 180.454 310.359 187.864 308.936 Z M 343.73 299.96 L 343.73 291.749 L 331.408 291.749 L 319.083 291.749 L 319.083 263.543 L 319.083 235.339 L 308.169 235.339 L 297.259 235.339 L 297.259 271.756 L 297.259 308.172 L 320.491 308.172 L 343.73 308.172 L 343.73 299.96 Z M 267.685 156.055 C 289.37 154.533 305.628 151.65 319.934 146.799 C 334.189 141.968 342.608 136.12 344.489 129.747 C 345.215 127.29 345.165 126.355 344.15 123.665 C 339.602 111.588 314.202 102.316 275.388 98.551 C 258.781 96.945 228.589 97.465 212.763 99.636 C 188.607 102.944 169 109.089 160.281 116.092 C 142.652 130.251 161.297 145.823 204.659 153.151 C 223.461 156.33 247.822 157.452 267.685 156.055 Z" fill="#00bcf2" style=""/>
</svg>