<?xml version="1.0" encoding="utf-8"?>
<svg xmlns="http://www.w3.org/2000/svg" viewBox="0 0 500 500">
  <defs>
    <linearGradient id="A" x1="31.52" y1="64.56" x2="31.52" y2="1.51" gradientUnits="userSpaceOnUse" gradientTransform="matrix(5.117243, 0, 0, 5.368104, 89.697909, 74.397198)">
      <stop offset="0.18" stop-color="#0052cc"/>
      <stop offset="1" stop-color="#2684ff"/>
    </linearGradient>
  </defs>
  <g transform="matrix(1.826172, 0, 0, 1.879297, 15.399994, 9)" style="">
    <svg xmlns="http://www.w3.org/2000/svg" width="256" height="256" fill="none" viewBox="0 0 256 256">
      <rect width="256" height="256" rx="60" style="fill: rgb(8, 14, 32);"/>
    </svg>
  </g>
  <path d="M 371.966 82.452 L 130.022 82.452 C 119.327 82.452 109.072 86.907 101.508 94.84 C 93.932 102.788 89.682 113.568 89.696 124.807 L 89.696 378.607 C 89.696 401.971 107.753 420.911 130.022 420.911 L 371.966 420.911 C 394.153 420.791 412.086 401.887 412.082 378.607 L 412.082 124.858 C 412.086 101.578 394.153 82.674 371.966 82.559 L 371.966 82.452 Z M 230.013 338.833 C 229.898 349.955 221.275 358.909 210.668 358.909 L 151.106 358.909 C 140.464 358.969 131.773 349.997 131.659 338.833 L 131.659 146.868 C 131.629 135.598 140.362 126.463 151.106 126.524 L 210.668 126.524 C 221.354 126.524 230.013 135.607 230.013 146.812 L 230.013 338.833 Z M 370.379 254.229 C 370.379 265.435 361.72 274.523 351.038 274.523 L 291.317 274.523 C 280.635 274.523 271.972 265.435 271.972 254.229 L 271.972 146.868 C 271.946 135.64 280.613 126.524 291.317 126.524 L 351.038 126.524 C 361.72 126.524 370.379 135.607 370.379 146.812 L 370.379 254.229 Z" fill="url(#A)" fill-rule="evenodd" style=""/>
</svg>